<?xml version="1.0" standalone="no"?>
<!DOCTYPE svg PUBLIC "-//W3C//DTD SVG 20010904//EN"
 "http://www.w3.org/TR/2001/REC-SVG-20010904/DTD/svg10.dtd">
<svg version="1.0" xmlns="http://www.w3.org/2000/svg"
 width="120.000000pt" height="120.000000pt" viewBox="0 0 120.000000 120.000000"
 preserveAspectRatio="xMidYMid meet">
<metadata>
Created by potrace 1.11, written by Peter Selinger 2001-2013
</metadata>
<g transform="translate(0.000000,120.000000) scale(0.100000,-0.100000)"
fill="#000000" stroke="none">
<path d="M305 781 c-162 -97 -293 -180 -292 -184 3 -10 524 -327 536 -327 5 0
14 -7 21 -15 7 -8 18 -15 26 -15 7 0 140 77 296 171 155 94 289 174 296 178 9
5 -88 69 -287 188 l-302 181 -294 -177z m563 2 c143 -87 270 -165 282 -173 22
-15 13 -21 -264 -187 l-286 -172 -70 42 c-39 23 -83 49 -98 58 -15 9 -109 66
-210 127 -101 61 -184 113 -185 117 -2 8 543 343 559 344 7 1 129 -70 272
-156z"/>
<path d="M495 856 c-56 -35 -119 -74 -142 -87 -23 -13 -96 -57 -163 -97 -109
-66 -120 -75 -103 -86 10 -7 129 -79 265 -161 l248 -148 265 159 c145 87 261
162 257 166 -7 7 -523 319 -526 317 0 0 -46 -29 -101 -63z m220 -38 c25 -15
27 -18 9 -18 -17 0 -27 -21 -69 -155 -27 -85 -51 -155 -54 -155 -3 0 -28 70
-55 155 -43 132 -53 155 -70 155 -13 0 6 16 49 44 l70 43 45 -25 c25 -14 59
-34 75 -44z m-290 -218 c0 -99 -3 -180 -7 -180 -6 0 -286 166 -296 175 -3 3
288 183 298 184 3 1 5 -80 5 -179z m507 89 c76 -45 140 -85 143 -88 2 -4 -47
-37 -108 -74 -62 -37 -130 -78 -152 -91 l-40 -24 0 179 c0 99 4 179 9 179 5 0
71 -37 148 -81z m-207 -125 c-1 -134 1 -147 18 -153 15 -6 4 -16 -57 -54 -42
-26 -80 -47 -84 -47 -4 0 -45 23 -92 50 -69 40 -80 50 -57 50 l27 0 1 148 1
147 48 -145 c27 -80 49 -146 50 -148 0 -2 10 -2 22 0 19 3 28 22 64 133 23 72
45 138 47 148 11 38 14 11 12 -129z"/>
</g>
</svg>
